<mxfile host="app.diagrams.net" modified="2024-01-16T08:25:16.793Z" agent="Mozilla/5.0 (Windows NT 10.0; Win64; x64) AppleWebKit/537.36 (KHTML, like Gecko) Chrome/120.0.0.0 Safari/537.36 Edg/120.0.0.0" etag="4GQr5BH0_NPKR7GlBZuD" version="22.1.18" type="github">
  <diagram id="prtHgNgQTEPvFCAcTncT" name="Page-1">
    <mxGraphModel dx="1501" dy="826" grid="1" gridSize="10" guides="1" tooltips="1" connect="1" arrows="1" fold="1" page="1" pageScale="1" pageWidth="827" pageHeight="1169" math="0" shadow="0">
      <root>
        <mxCell id="0" />
        <mxCell id="1" parent="0" />
        <mxCell id="dNxyNK7c78bLwvsdeMH5-19" value="Condom" style="swimlane;html=1;childLayout=stackLayout;resizeParent=1;resizeParentMax=0;horizontal=0;startSize=20;horizontalStack=0;fontFamily=Tahoma;" parent="1" vertex="1">
          <mxGeometry x="50" y="40" width="630" height="600" as="geometry" />
        </mxCell>
        <mxCell id="dNxyNK7c78bLwvsdeMH5-27" value="" style="edgeStyle=orthogonalEdgeStyle;rounded=0;orthogonalLoop=1;jettySize=auto;html=1;dashed=1;endArrow=none;endFill=0;fontFamily=Tahoma;" parent="dNxyNK7c78bLwvsdeMH5-19" source="dNxyNK7c78bLwvsdeMH5-24" target="dNxyNK7c78bLwvsdeMH5-26" edge="1">
          <mxGeometry relative="1" as="geometry" />
        </mxCell>
        <mxCell id="dNxyNK7c78bLwvsdeMH5-31" style="edgeStyle=orthogonalEdgeStyle;rounded=0;orthogonalLoop=1;jettySize=auto;html=1;endArrow=classic;endFill=1;fontFamily=Tahoma;" parent="dNxyNK7c78bLwvsdeMH5-19" source="dNxyNK7c78bLwvsdeMH5-28" target="dNxyNK7c78bLwvsdeMH5-30" edge="1">
          <mxGeometry relative="1" as="geometry" />
        </mxCell>
        <mxCell id="dNxyNK7c78bLwvsdeMH5-35" style="edgeStyle=orthogonalEdgeStyle;rounded=0;orthogonalLoop=1;jettySize=auto;html=1;endArrow=classic;endFill=1;fontFamily=Tahoma;" parent="dNxyNK7c78bLwvsdeMH5-19" source="dNxyNK7c78bLwvsdeMH5-28" target="dNxyNK7c78bLwvsdeMH5-34" edge="1">
          <mxGeometry relative="1" as="geometry" />
        </mxCell>
        <mxCell id="dNxyNK7c78bLwvsdeMH5-38" style="edgeStyle=orthogonalEdgeStyle;rounded=0;orthogonalLoop=1;jettySize=auto;html=1;endArrow=classic;endFill=1;fontFamily=Tahoma;" parent="dNxyNK7c78bLwvsdeMH5-19" source="dNxyNK7c78bLwvsdeMH5-26" target="dNxyNK7c78bLwvsdeMH5-36" edge="1">
          <mxGeometry relative="1" as="geometry">
            <Array as="points">
              <mxPoint x="180" y="340" />
              <mxPoint x="400" y="340" />
            </Array>
          </mxGeometry>
        </mxCell>
        <mxCell id="dNxyNK7c78bLwvsdeMH5-20" value="ก. ป้องกัน" style="swimlane;html=1;startSize=20;horizontal=0;fontFamily=Tahoma;" parent="dNxyNK7c78bLwvsdeMH5-19" vertex="1">
          <mxGeometry x="20" width="610" height="120" as="geometry" />
        </mxCell>
        <mxCell id="dNxyNK7c78bLwvsdeMH5-25" value="" style="edgeStyle=orthogonalEdgeStyle;rounded=0;orthogonalLoop=1;jettySize=auto;html=1;fontFamily=Tahoma;" parent="dNxyNK7c78bLwvsdeMH5-20" source="dNxyNK7c78bLwvsdeMH5-23" target="dNxyNK7c78bLwvsdeMH5-24" edge="1">
          <mxGeometry relative="1" as="geometry" />
        </mxCell>
        <mxCell id="dNxyNK7c78bLwvsdeMH5-23" value="" style="ellipse;whiteSpace=wrap;html=1;fontFamily=Tahoma;" parent="dNxyNK7c78bLwvsdeMH5-20" vertex="1">
          <mxGeometry x="40" y="40" width="40" height="40" as="geometry" />
        </mxCell>
        <mxCell id="dNxyNK7c78bLwvsdeMH5-24" value="" style="rounded=0;whiteSpace=wrap;html=1;fontFamily=Tahoma;fontSize=12;fontColor=#000000;align=center;" parent="dNxyNK7c78bLwvsdeMH5-20" vertex="1">
          <mxGeometry x="120" y="30" width="80" height="60" as="geometry" />
        </mxCell>
        <mxCell id="dNxyNK7c78bLwvsdeMH5-33" value="" style="edgeStyle=orthogonalEdgeStyle;rounded=0;orthogonalLoop=1;jettySize=auto;html=1;endArrow=classic;endFill=1;fontFamily=Tahoma;" parent="dNxyNK7c78bLwvsdeMH5-20" source="dNxyNK7c78bLwvsdeMH5-30" target="dNxyNK7c78bLwvsdeMH5-32" edge="1">
          <mxGeometry relative="1" as="geometry" />
        </mxCell>
        <mxCell id="dNxyNK7c78bLwvsdeMH5-30" value="" style="rounded=0;whiteSpace=wrap;html=1;fontFamily=Tahoma;fontSize=12;fontColor=#000000;align=center;" parent="dNxyNK7c78bLwvsdeMH5-20" vertex="1">
          <mxGeometry x="240" y="30" width="80" height="60" as="geometry" />
        </mxCell>
        <mxCell id="dNxyNK7c78bLwvsdeMH5-32" value="" style="ellipse;whiteSpace=wrap;html=1;fontFamily=Tahoma;" parent="dNxyNK7c78bLwvsdeMH5-20" vertex="1">
          <mxGeometry x="360" y="40" width="40" height="40" as="geometry" />
        </mxCell>
        <mxCell id="dNxyNK7c78bLwvsdeMH5-21" value="NAP สปสช." style="swimlane;html=1;startSize=20;horizontal=0;fontFamily=Tahoma;" parent="dNxyNK7c78bLwvsdeMH5-19" vertex="1">
          <mxGeometry x="20" y="120" width="610" height="120" as="geometry" />
        </mxCell>
        <mxCell id="dNxyNK7c78bLwvsdeMH5-29" value="" style="edgeStyle=orthogonalEdgeStyle;rounded=0;orthogonalLoop=1;jettySize=auto;html=1;endArrow=classic;endFill=1;fontFamily=Tahoma;" parent="dNxyNK7c78bLwvsdeMH5-21" source="dNxyNK7c78bLwvsdeMH5-26" target="dNxyNK7c78bLwvsdeMH5-28" edge="1">
          <mxGeometry relative="1" as="geometry" />
        </mxCell>
        <mxCell id="dNxyNK7c78bLwvsdeMH5-26" value="" style="rounded=0;whiteSpace=wrap;html=1;fontFamily=Tahoma;fontSize=12;fontColor=#000000;align=center;" parent="dNxyNK7c78bLwvsdeMH5-21" vertex="1">
          <mxGeometry x="120" y="30" width="80" height="60" as="geometry" />
        </mxCell>
        <mxCell id="dNxyNK7c78bLwvsdeMH5-28" value="" style="rhombus;whiteSpace=wrap;html=1;fontFamily=Tahoma;fontSize=12;fontColor=#000000;align=center;" parent="dNxyNK7c78bLwvsdeMH5-21" vertex="1">
          <mxGeometry x="260" y="40" width="40" height="40" as="geometry" />
        </mxCell>
        <mxCell id="dNxyNK7c78bLwvsdeMH5-22" value="สคร./สสจ." style="swimlane;html=1;startSize=20;horizontal=0;fontFamily=Tahoma;" parent="dNxyNK7c78bLwvsdeMH5-19" vertex="1">
          <mxGeometry x="20" y="240" width="610" height="120" as="geometry" />
        </mxCell>
        <mxCell id="dNxyNK7c78bLwvsdeMH5-37" value="" style="edgeStyle=orthogonalEdgeStyle;rounded=0;orthogonalLoop=1;jettySize=auto;html=1;endArrow=classic;endFill=1;fontFamily=Tahoma;" parent="dNxyNK7c78bLwvsdeMH5-22" source="dNxyNK7c78bLwvsdeMH5-34" target="dNxyNK7c78bLwvsdeMH5-36" edge="1">
          <mxGeometry relative="1" as="geometry" />
        </mxCell>
        <mxCell id="dNxyNK7c78bLwvsdeMH5-34" value="" style="rounded=0;whiteSpace=wrap;html=1;fontFamily=Tahoma;fontSize=12;fontColor=#000000;align=center;" parent="dNxyNK7c78bLwvsdeMH5-22" vertex="1">
          <mxGeometry x="240" y="20" width="80" height="60" as="geometry" />
        </mxCell>
        <mxCell id="dNxyNK7c78bLwvsdeMH5-36" value="" style="rhombus;whiteSpace=wrap;html=1;fontFamily=Tahoma;fontSize=12;fontColor=#000000;align=center;" parent="dNxyNK7c78bLwvsdeMH5-22" vertex="1">
          <mxGeometry x="360" y="30" width="40" height="40" as="geometry" />
        </mxCell>
        <mxCell id="EJFhG_xvfswVd12eMsBA-1" value="หน่วยบริการ" style="swimlane;html=1;startSize=20;horizontal=0;fontFamily=Tahoma;" vertex="1" parent="dNxyNK7c78bLwvsdeMH5-19">
          <mxGeometry x="20" y="360" width="610" height="120" as="geometry" />
        </mxCell>
        <mxCell id="EJFhG_xvfswVd12eMsBA-2" value="" style="edgeStyle=orthogonalEdgeStyle;rounded=0;orthogonalLoop=1;jettySize=auto;html=1;endArrow=classic;endFill=1;fontFamily=Tahoma;" edge="1" parent="EJFhG_xvfswVd12eMsBA-1" source="EJFhG_xvfswVd12eMsBA-3" target="EJFhG_xvfswVd12eMsBA-4">
          <mxGeometry relative="1" as="geometry" />
        </mxCell>
        <mxCell id="EJFhG_xvfswVd12eMsBA-3" value="" style="rounded=0;whiteSpace=wrap;html=1;fontFamily=Tahoma;fontSize=12;fontColor=#000000;align=center;" vertex="1" parent="EJFhG_xvfswVd12eMsBA-1">
          <mxGeometry x="240" y="20" width="80" height="60" as="geometry" />
        </mxCell>
        <mxCell id="EJFhG_xvfswVd12eMsBA-4" value="" style="rhombus;whiteSpace=wrap;html=1;fontFamily=Tahoma;fontSize=12;fontColor=#000000;align=center;" vertex="1" parent="EJFhG_xvfswVd12eMsBA-1">
          <mxGeometry x="360" y="30" width="40" height="40" as="geometry" />
        </mxCell>
        <mxCell id="EJFhG_xvfswVd12eMsBA-5" value="หน่วยบริการ" style="swimlane;html=1;startSize=20;horizontal=0;fontFamily=Tahoma;" vertex="1" parent="dNxyNK7c78bLwvsdeMH5-19">
          <mxGeometry x="20" y="480" width="610" height="120" as="geometry" />
        </mxCell>
        <mxCell id="EJFhG_xvfswVd12eMsBA-6" value="" style="edgeStyle=orthogonalEdgeStyle;rounded=0;orthogonalLoop=1;jettySize=auto;html=1;endArrow=classic;endFill=1;fontFamily=Tahoma;" edge="1" parent="EJFhG_xvfswVd12eMsBA-5" source="EJFhG_xvfswVd12eMsBA-7" target="EJFhG_xvfswVd12eMsBA-8">
          <mxGeometry relative="1" as="geometry" />
        </mxCell>
        <mxCell id="EJFhG_xvfswVd12eMsBA-7" value="" style="rounded=0;whiteSpace=wrap;html=1;fontFamily=Tahoma;fontSize=12;fontColor=#000000;align=center;" vertex="1" parent="EJFhG_xvfswVd12eMsBA-5">
          <mxGeometry x="240" y="20" width="80" height="60" as="geometry" />
        </mxCell>
        <mxCell id="EJFhG_xvfswVd12eMsBA-8" value="" style="rhombus;whiteSpace=wrap;html=1;fontFamily=Tahoma;fontSize=12;fontColor=#000000;align=center;" vertex="1" parent="EJFhG_xvfswVd12eMsBA-5">
          <mxGeometry x="360" y="30" width="40" height="40" as="geometry" />
        </mxCell>
        <mxCell id="EJFhG_xvfswVd12eMsBA-12" value="Condom" style="swimlane;html=1;childLayout=stackLayout;resizeParent=1;resizeParentMax=0;horizontal=0;startSize=20;horizontalStack=0;fontFamily=Tahoma;" vertex="1" parent="1">
          <mxGeometry x="760" y="40" width="630" height="600" as="geometry" />
        </mxCell>
        <mxCell id="EJFhG_xvfswVd12eMsBA-13" value="" style="edgeStyle=orthogonalEdgeStyle;rounded=0;orthogonalLoop=1;jettySize=auto;html=1;dashed=1;endArrow=none;endFill=0;fontFamily=Tahoma;" edge="1" parent="EJFhG_xvfswVd12eMsBA-12" source="EJFhG_xvfswVd12eMsBA-20" target="EJFhG_xvfswVd12eMsBA-26">
          <mxGeometry relative="1" as="geometry" />
        </mxCell>
        <mxCell id="EJFhG_xvfswVd12eMsBA-14" style="edgeStyle=orthogonalEdgeStyle;rounded=0;orthogonalLoop=1;jettySize=auto;html=1;endArrow=classic;endFill=1;fontFamily=Tahoma;" edge="1" parent="EJFhG_xvfswVd12eMsBA-12" source="EJFhG_xvfswVd12eMsBA-27" target="EJFhG_xvfswVd12eMsBA-22">
          <mxGeometry relative="1" as="geometry" />
        </mxCell>
        <mxCell id="EJFhG_xvfswVd12eMsBA-15" style="edgeStyle=orthogonalEdgeStyle;rounded=0;orthogonalLoop=1;jettySize=auto;html=1;endArrow=classic;endFill=1;fontFamily=Tahoma;" edge="1" parent="EJFhG_xvfswVd12eMsBA-12" source="EJFhG_xvfswVd12eMsBA-27" target="EJFhG_xvfswVd12eMsBA-30">
          <mxGeometry relative="1" as="geometry" />
        </mxCell>
        <mxCell id="EJFhG_xvfswVd12eMsBA-16" style="edgeStyle=orthogonalEdgeStyle;rounded=0;orthogonalLoop=1;jettySize=auto;html=1;endArrow=classic;endFill=1;fontFamily=Tahoma;" edge="1" parent="EJFhG_xvfswVd12eMsBA-12" source="EJFhG_xvfswVd12eMsBA-26" target="EJFhG_xvfswVd12eMsBA-31">
          <mxGeometry relative="1" as="geometry">
            <Array as="points">
              <mxPoint x="180" y="340" />
              <mxPoint x="400" y="340" />
            </Array>
          </mxGeometry>
        </mxCell>
        <mxCell id="EJFhG_xvfswVd12eMsBA-17" value="ก. ป้องกัน" style="swimlane;html=1;startSize=20;horizontal=0;fontFamily=Tahoma;" vertex="1" parent="EJFhG_xvfswVd12eMsBA-12">
          <mxGeometry x="20" width="610" height="120" as="geometry" />
        </mxCell>
        <mxCell id="EJFhG_xvfswVd12eMsBA-18" value="" style="edgeStyle=orthogonalEdgeStyle;rounded=0;orthogonalLoop=1;jettySize=auto;html=1;fontFamily=Tahoma;" edge="1" parent="EJFhG_xvfswVd12eMsBA-17" source="EJFhG_xvfswVd12eMsBA-19" target="EJFhG_xvfswVd12eMsBA-20">
          <mxGeometry relative="1" as="geometry" />
        </mxCell>
        <mxCell id="EJFhG_xvfswVd12eMsBA-19" value="" style="ellipse;whiteSpace=wrap;html=1;fontFamily=Tahoma;" vertex="1" parent="EJFhG_xvfswVd12eMsBA-17">
          <mxGeometry x="40" y="40" width="40" height="40" as="geometry" />
        </mxCell>
        <mxCell id="EJFhG_xvfswVd12eMsBA-20" value="" style="rounded=0;whiteSpace=wrap;html=1;fontFamily=Tahoma;fontSize=12;fontColor=#000000;align=center;" vertex="1" parent="EJFhG_xvfswVd12eMsBA-17">
          <mxGeometry x="120" y="30" width="80" height="60" as="geometry" />
        </mxCell>
        <mxCell id="EJFhG_xvfswVd12eMsBA-21" value="" style="edgeStyle=orthogonalEdgeStyle;rounded=0;orthogonalLoop=1;jettySize=auto;html=1;endArrow=classic;endFill=1;fontFamily=Tahoma;" edge="1" parent="EJFhG_xvfswVd12eMsBA-17" source="EJFhG_xvfswVd12eMsBA-22" target="EJFhG_xvfswVd12eMsBA-23">
          <mxGeometry relative="1" as="geometry" />
        </mxCell>
        <mxCell id="EJFhG_xvfswVd12eMsBA-22" value="" style="rounded=0;whiteSpace=wrap;html=1;fontFamily=Tahoma;fontSize=12;fontColor=#000000;align=center;" vertex="1" parent="EJFhG_xvfswVd12eMsBA-17">
          <mxGeometry x="240" y="30" width="80" height="60" as="geometry" />
        </mxCell>
        <mxCell id="EJFhG_xvfswVd12eMsBA-23" value="" style="ellipse;whiteSpace=wrap;html=1;fontFamily=Tahoma;" vertex="1" parent="EJFhG_xvfswVd12eMsBA-17">
          <mxGeometry x="360" y="40" width="40" height="40" as="geometry" />
        </mxCell>
        <mxCell id="EJFhG_xvfswVd12eMsBA-24" value="NAP สปสช." style="swimlane;html=1;startSize=20;horizontal=0;fontFamily=Tahoma;" vertex="1" parent="EJFhG_xvfswVd12eMsBA-12">
          <mxGeometry x="20" y="120" width="610" height="120" as="geometry" />
        </mxCell>
        <mxCell id="EJFhG_xvfswVd12eMsBA-25" value="" style="edgeStyle=orthogonalEdgeStyle;rounded=0;orthogonalLoop=1;jettySize=auto;html=1;endArrow=classic;endFill=1;fontFamily=Tahoma;" edge="1" parent="EJFhG_xvfswVd12eMsBA-24" source="EJFhG_xvfswVd12eMsBA-26" target="EJFhG_xvfswVd12eMsBA-27">
          <mxGeometry relative="1" as="geometry" />
        </mxCell>
        <mxCell id="EJFhG_xvfswVd12eMsBA-26" value="" style="rounded=0;whiteSpace=wrap;html=1;fontFamily=Tahoma;fontSize=12;fontColor=#000000;align=center;" vertex="1" parent="EJFhG_xvfswVd12eMsBA-24">
          <mxGeometry x="120" y="30" width="80" height="60" as="geometry" />
        </mxCell>
        <mxCell id="EJFhG_xvfswVd12eMsBA-27" value="" style="rhombus;whiteSpace=wrap;html=1;fontFamily=Tahoma;fontSize=12;fontColor=#000000;align=center;" vertex="1" parent="EJFhG_xvfswVd12eMsBA-24">
          <mxGeometry x="260" y="40" width="40" height="40" as="geometry" />
        </mxCell>
        <mxCell id="EJFhG_xvfswVd12eMsBA-28" value="สคร./สสจ." style="swimlane;html=1;startSize=20;horizontal=0;fontFamily=Tahoma;" vertex="1" parent="EJFhG_xvfswVd12eMsBA-12">
          <mxGeometry x="20" y="240" width="610" height="120" as="geometry" />
        </mxCell>
        <mxCell id="EJFhG_xvfswVd12eMsBA-29" value="" style="edgeStyle=orthogonalEdgeStyle;rounded=0;orthogonalLoop=1;jettySize=auto;html=1;endArrow=classic;endFill=1;fontFamily=Tahoma;" edge="1" parent="EJFhG_xvfswVd12eMsBA-28" source="EJFhG_xvfswVd12eMsBA-30" target="EJFhG_xvfswVd12eMsBA-31">
          <mxGeometry relative="1" as="geometry" />
        </mxCell>
        <mxCell id="EJFhG_xvfswVd12eMsBA-30" value="" style="rounded=0;whiteSpace=wrap;html=1;fontFamily=Tahoma;fontSize=12;fontColor=#000000;align=center;" vertex="1" parent="EJFhG_xvfswVd12eMsBA-28">
          <mxGeometry x="240" y="20" width="80" height="60" as="geometry" />
        </mxCell>
        <mxCell id="EJFhG_xvfswVd12eMsBA-31" value="" style="rhombus;whiteSpace=wrap;html=1;fontFamily=Tahoma;fontSize=12;fontColor=#000000;align=center;" vertex="1" parent="EJFhG_xvfswVd12eMsBA-28">
          <mxGeometry x="360" y="30" width="40" height="40" as="geometry" />
        </mxCell>
        <mxCell id="EJFhG_xvfswVd12eMsBA-32" value="หน่วยบริการ" style="swimlane;html=1;startSize=20;horizontal=0;fontFamily=Tahoma;" vertex="1" parent="EJFhG_xvfswVd12eMsBA-12">
          <mxGeometry x="20" y="360" width="610" height="120" as="geometry" />
        </mxCell>
        <mxCell id="EJFhG_xvfswVd12eMsBA-33" value="" style="edgeStyle=orthogonalEdgeStyle;rounded=0;orthogonalLoop=1;jettySize=auto;html=1;endArrow=classic;endFill=1;fontFamily=Tahoma;" edge="1" parent="EJFhG_xvfswVd12eMsBA-32" source="EJFhG_xvfswVd12eMsBA-34" target="EJFhG_xvfswVd12eMsBA-35">
          <mxGeometry relative="1" as="geometry" />
        </mxCell>
        <mxCell id="EJFhG_xvfswVd12eMsBA-34" value="" style="rounded=0;whiteSpace=wrap;html=1;fontFamily=Tahoma;fontSize=12;fontColor=#000000;align=center;" vertex="1" parent="EJFhG_xvfswVd12eMsBA-32">
          <mxGeometry x="240" y="20" width="80" height="60" as="geometry" />
        </mxCell>
        <mxCell id="EJFhG_xvfswVd12eMsBA-35" value="" style="rhombus;whiteSpace=wrap;html=1;fontFamily=Tahoma;fontSize=12;fontColor=#000000;align=center;" vertex="1" parent="EJFhG_xvfswVd12eMsBA-32">
          <mxGeometry x="360" y="30" width="40" height="40" as="geometry" />
        </mxCell>
        <mxCell id="EJFhG_xvfswVd12eMsBA-36" value="หน่วยบริการ" style="swimlane;html=1;startSize=20;horizontal=0;fontFamily=Tahoma;" vertex="1" parent="EJFhG_xvfswVd12eMsBA-12">
          <mxGeometry x="20" y="480" width="610" height="120" as="geometry" />
        </mxCell>
        <mxCell id="EJFhG_xvfswVd12eMsBA-37" value="" style="edgeStyle=orthogonalEdgeStyle;rounded=0;orthogonalLoop=1;jettySize=auto;html=1;endArrow=classic;endFill=1;fontFamily=Tahoma;" edge="1" parent="EJFhG_xvfswVd12eMsBA-36" source="EJFhG_xvfswVd12eMsBA-38" target="EJFhG_xvfswVd12eMsBA-39">
          <mxGeometry relative="1" as="geometry" />
        </mxCell>
        <mxCell id="EJFhG_xvfswVd12eMsBA-38" value="" style="rounded=0;whiteSpace=wrap;html=1;fontFamily=Tahoma;fontSize=12;fontColor=#000000;align=center;" vertex="1" parent="EJFhG_xvfswVd12eMsBA-36">
          <mxGeometry x="240" y="20" width="80" height="60" as="geometry" />
        </mxCell>
        <mxCell id="EJFhG_xvfswVd12eMsBA-39" value="" style="rhombus;whiteSpace=wrap;html=1;fontFamily=Tahoma;fontSize=12;fontColor=#000000;align=center;" vertex="1" parent="EJFhG_xvfswVd12eMsBA-36">
          <mxGeometry x="360" y="30" width="40" height="40" as="geometry" />
        </mxCell>
      </root>
    </mxGraphModel>
  </diagram>
</mxfile>
